Agneepath (2012) DVDScr x264 


Video
ID                                       : 1
Format                                   : AVC
Format/Info                              : Advanced Video Codec
Format profile                           : High@L2.1
Format settings, CABAC                   : Yes
Format settings, ReFrames                : 8 frames
Muxing mode                              : Header stripping
Codec ID                                 : V_MPEG4/ISO/AVC
Duration                                 : 2h 35mn
Bit rate                                 : 251 Kbps
Width                                    : 608 pixels
Height                                   : 240 pixels
Display aspect ratio                     : 2.533
Frame rate                               : 23.976 fps
Color space                              : YUV
Chroma subsampling                       : 4:2:0
Bit depth                                : 8 bits
Scan type                                : Progressive
Bits/(Pixel*Frame)                       : 0.072
Stream size                              : 276 MiB (91%)
Writing library                          : x264 core
Default                                  : Yes
Forced                                   : No

Audio
ID                                       : 2
Format                                   : Vorbis
Duration                                 : 2h 35mn
Bit rate mode                            : Variable
Bit rate                                 : 18.0 Kbps
Channel(s)                               : 2 channels
Sampling rate                            : 8 000 Hz
Compression mode                         : Lossy
Stream size                              : 20.1 MiB (7%)
Default                                  : Yes
Forced                                   : No


==Screens==
 
http://www.shotpix.com/images/87063111838605797806.jpg 
http://www.shotpix.com/images/32171568842459605050.jpg 
http://www.shotpix.com/images/64451572042070789418.jpg 
http://www.shotpix.com/images/41510972765719518898.jpg 
http://www.shotpix.com/images/33356341459909401935.jpg 
http://www.shotpix.com/images/77116154795304281651.jpg 
http://www.shotpix.com/images/43147759968899536347.jpg 